{"title":"Sci.Fi.Science.Physics.of.The.Impossible.02of12.How.To.Travel.To","uid":5570838,"size":276144810,"categoryP":"video","categoryS":"tv_shows","magnet":"?xt=urn:btih:4b6dff10a2d575172c2d3e3b98ab98ead29cee20&amp;dn=Sci.Fi.Science.Physics.of.The.Impossible.02of12.How.To.Travel.To&amp;tr=udp%3A%2F%2Ftracker.openbittorrent.com%3A80&amp;tr=udp%3A%2F%2Fopen.demonii.com%3A1337&amp;tr=udp%3A%2F%2Ftracker.coppersurfer.tk%3A6969&amp;tr=udp%3A%2F%2Fexodus.desync.com%3A6969","seeders":0,"leechers":1,"uploader":"itvend","files":1,"time":1274245480,"description":"General\nComplete name                    : Sci.Fi.Science.Physics.of.The.Impossible.02of12.How.To.Travel.To.A.Parallel.Universe.HDTV.Xvid.Mp3.avi\nFormat                           : AVI\nFormat/Info                      : Audio Video Interleave\nFile size                        : 263 MiB\nDuration                         : 22mn 0s\nOverall bit rate                 : 1 673 Kbps\nWriting application              : Lavf52.32.0\n\nVideo\nID                               : 0\nFormat                           : MPEG-4 Visual\nFormat profile                   : AdvancedSimple@L5\nFormat settings, BVOP            : Yes\nFormat settings, QPel            : No\nFormat settings, GMC             : No warppoints\nFormat settings, Matrix          : Default (H.263)\nMuxing mode                      : Packed bitstream\nCodec ID                         : XVID\nCodec ID/Hint                    : XviD\nDuration                         : 22mn 0s\nBit rate                         : 1 531 Kbps\nWidth                            : 704 pixels\nHeight                           : 384 pixels\nDisplay aspect ratio             : 16:9\nFrame rate                       : 29.970 fps\nResolution                       : 24 bits\nColorimetry                      : 4:2:0\nScan type                        : Progressive\nBits/(Pixel*Frame)               : 0.189\nStream size                      : 241 MiB (92%)\nWriting library                  : XviD 1.2.1 (UTC 2008-12-04)\n\nAudio\nID                               : 1\nFormat                           : MPEG Audio\nFormat version                   : Version 1\nFormat profile                   : Layer 3\nFormat settings, Mode            : Joint stereo / MS Stereo\nCodec ID                         : 55\nCodec ID/Hint                    : MP3\nDuration                         : 22mn 0s\nBit rate mode                    : Constant\nBit rate                         : 128 Kbps\nChannel(s)                       : 2 channels\nSampling rate                    : 48.0 KHz\nResolution                       : 16 bits\nStream size                      : 20.2 MiB (8%)\nAlignment                        : Aligned on interleaves\nInterleave, duration             : 24 ms (0.72 video frame)","torrent":{"xt":"urn:btih:4b6dff10a2d575172c2d3e3b98ab98ead29cee20","amp;dn":"Sci.Fi.Science.Physics.of.The.Impossible.02of12.How.To.Travel.To","amp;tr":["udp%3A%2F%2Ftracker.openbittorrent.com%3A80","udp%3A%2F%2Fopen.demonii.com%3A1337","udp%3A%2F%2Ftracker.coppersurfer.tk%3A6969","udp%3A%2F%2Fexodus.desync.com%3A6969"],"infoHash":"4b6dff10a2d575172c2d3e3b98ab98ead29cee20","infoHashBuffer":{"type":"Buffer","data":[75,109,255,16,162,213,117,23,44,45,62,59,152,171,152,234,210,156,238,32]},"announce":[],"urlList":[]}}